<svg width="20" height="21" viewBox="0 0 20 21" fill="none" xmlns="http://www.w3.org/2000/svg">
<g clip-path="url(#clip0_229_576)">
<path d="M8.33333 20.6718C3.61111 19.8385 0 15.7274 0 10.783C0 5.28296 4.5 0.782959 10 0.782959C15.5 0.782959 20 5.28296 20 10.783C20 15.7274 16.3889 19.8385 11.6667 20.6718L11.1111 20.2274H8.88889L8.33333 20.6718Z" fill="#7E7E7E"/>
<path d="M13.8891 13.5608L14.3335 10.783H11.6668V8.83854C11.6668 8.06076 11.9446 7.44965 13.1668 7.44965H14.4446V4.8941C13.7224 4.78299 12.9446 4.67188 12.2224 4.67188C9.94461 4.67188 8.3335 6.06076 8.3335 8.56076V10.783H5.8335V13.5608H8.3335V20.6163C8.88905 20.7274 9.44461 20.783 10.0002 20.783C10.5557 20.783 11.1113 20.7274 11.6668 20.6163V13.5608H13.8891Z" fill="white"/>
</g>
<defs>
<clipPath id="clip0_229_576">
<rect width="20" height="20" fill="white" transform="translate(0 0.782959)"/>
</clipPath>
</defs>
</svg>
