<svg width="20" height="21" viewBox="0 0 20 21" fill="none" xmlns="http://www.w3.org/2000/svg">
<g clip-path="url(#clip0_229_579)">
<path d="M10 2.58483C12.6701 2.58483 12.9863 2.59499 14.0408 2.64304C15.0158 2.68757 15.5453 2.85046 15.8977 2.98741C16.3645 3.16882 16.6976 3.38554 17.0475 3.73546C17.3975 4.08538 17.6141 4.41851 17.7955 4.88522C17.9325 5.23765 18.0954 5.76718 18.1399 6.7421C18.188 7.79663 18.1981 8.11288 18.1981 10.783C18.1981 13.4531 18.188 13.7694 18.1399 14.8238C18.0954 15.7988 17.9325 16.3283 17.7955 16.6807C17.6141 17.1474 17.3974 17.4806 17.0475 17.8305C16.6976 18.1805 16.3645 18.3972 15.8977 18.5785C15.5453 18.7155 15.0158 18.8784 14.0408 18.9229C12.9865 18.971 12.6702 18.9812 10 18.9812C7.32969 18.9812 7.01344 18.971 5.95914 18.9229C4.98414 18.8783 4.45469 18.7155 4.10227 18.5785C3.63555 18.3972 3.30234 18.1805 2.95242 17.8305C2.6025 17.4805 2.38578 17.1474 2.20445 16.6807C2.0675 16.3283 1.90453 15.7988 1.86008 14.8238C1.81195 13.7694 1.8018 13.4531 1.8018 10.783C1.8018 8.11288 1.81195 7.79663 1.86008 6.74218C1.90461 5.76718 2.0675 5.23765 2.20445 4.88522C2.38578 4.41851 2.6025 4.08538 2.95242 3.73546C3.30242 3.38546 3.63555 3.16882 4.10227 2.98741C4.45461 2.85046 4.98414 2.68757 5.95914 2.64304C7.01359 2.59499 7.32984 2.58483 10 2.58483ZM10 0.782959C7.28414 0.782959 6.94359 0.794443 5.87703 0.843115C4.81258 0.891709 4.08562 1.06077 3.44961 1.30796C2.79195 1.56351 2.2343 1.90546 1.67836 2.4614C1.12242 3.01733 0.780547 3.57499 0.525 4.23257C0.277734 4.86866 0.10875 5.59561 0.0601562 6.65999C0.0114844 7.72655 0 8.0671 0 10.783C0 13.4988 0.0114844 13.8394 0.0601562 14.9059C0.10875 15.9704 0.277734 16.6973 0.525 17.3333C0.780469 17.9909 1.12242 18.5487 1.67836 19.1046C2.2343 19.6605 2.79195 20.0024 3.44961 20.258C4.0857 20.5052 4.81258 20.6742 5.87695 20.7228C6.94359 20.7715 7.28414 20.783 10 20.783C12.7159 20.783 13.0564 20.7715 14.123 20.7228C15.1873 20.6742 15.9143 20.5052 16.5503 20.258C17.208 20.0025 17.7656 19.6605 18.3216 19.1046C18.8775 18.5487 19.2195 17.991 19.475 17.3333C19.7222 16.6973 19.8913 15.9704 19.9398 14.906C19.9885 13.8394 20 13.4988 20 10.783C20 8.0671 19.9885 7.72655 19.9398 6.65999C19.8913 5.59561 19.7222 4.86866 19.475 4.23265C19.2195 3.57499 18.8775 3.01733 18.3216 2.4614C17.7656 1.90546 17.208 1.56343 16.5504 1.30796C15.9143 1.06077 15.1873 0.891709 14.123 0.843115C13.0564 0.794443 12.7159 0.782959 10 0.782959ZM10 5.6478C7.16391 5.6478 4.86484 7.94702 4.86484 10.783C4.86484 13.6191 7.16391 15.9181 10 15.9181C12.836 15.9181 15.1352 13.6191 15.1352 10.783C15.1352 7.94694 12.836 5.6478 10 5.6478ZM10 14.1163C8.15906 14.1163 6.66664 12.6239 6.66664 10.783C6.66664 8.94202 8.15906 7.4496 10 7.4496C11.8409 7.4496 13.3334 8.94202 13.3334 10.783C13.3334 12.6239 11.8409 14.1163 10 14.1163ZM16.538 5.44491C16.538 6.10772 16.0008 6.64491 15.338 6.64491C14.6752 6.64491 14.138 6.10772 14.138 5.44491C14.138 4.78218 14.6752 4.24491 15.338 4.24491C16.0008 4.24491 16.538 4.78218 16.538 5.44491Z" fill="#7E7E7E"/>
</g>
<defs>
<clipPath id="clip0_229_579">
<rect width="20" height="20" fill="white" transform="translate(0 0.782959)"/>
</clipPath>
</defs>
</svg>
