<svg width="160" height="24" viewBox="0 0 160 24" fill="none" xmlns="http://www.w3.org/2000/svg">
<path d="M20.236 23H0.116977L1.04698 17.699L13.819 5.888H3.55798L4.48798 0.679999H23.739L22.809 5.857L9.88198 17.792H21.166L20.236 23ZM33.928 10.631C31.727 10.631 30.673 12.894 30.363 14.723C29.836 17.792 30.735 19.125 32.378 19.125C34.114 19.125 35.416 17.792 35.943 14.723C36.377 12.336 35.633 10.538 33.928 10.631ZM23.853 15.064C24.845 9.422 29.123 6.291 34.61 6.291C40.345 6.291 43.29 9.67 42.391 14.723C41.337 20.675 36.811 23.465 31.603 23.465C26.395 23.465 22.892 20.613 23.853 15.064ZM54.6048 10.631C52.4038 10.631 51.3498 12.894 51.0398 14.723C50.5128 17.792 51.4118 19.125 53.0548 19.125C54.7908 19.125 56.0928 17.792 56.6198 14.723C57.0538 12.336 56.3098 10.538 54.6048 10.631ZM44.5298 15.064C45.5218 9.422 49.7998 6.291 55.2868 6.291C61.0218 6.291 63.9668 9.67 63.0678 14.723C62.0138 20.675 57.4878 23.465 52.2798 23.465C47.0718 23.465 43.5688 20.613 44.5298 15.064ZM74.9406 5.888L74.1656 10.321H77.0486C79.3116 10.321 80.6136 9.763 80.8926 8.213C81.1716 6.632 80.0556 5.888 78.3506 5.888H74.9406ZM75.5296 15.219H73.2976L71.9336 23H64.6176L68.5546 0.679999H79.0946C86.5346 0.679999 88.6116 2.695 87.8676 7.035C87.4026 9.608 85.8836 11.778 83.1556 12.491C85.3566 13.359 86.6896 13.917 85.8836 18.412C85.3876 21.326 85.1086 22.318 85.9766 22.318L85.8526 23H78.4436C78.3506 22.504 78.4126 21.078 78.7536 19.094C79.2806 16.18 78.9396 15.219 75.5296 15.219ZM106.508 23H99.8435V21.264C97.7045 22.969 95.7515 23.465 93.3335 23.465C90.2645 23.465 87.8155 21.946 88.4045 18.567C89.7065 11.189 100.68 14.537 101.207 11.499C101.424 10.321 100.029 10.166 99.3475 10.166C98.4485 10.166 97.2085 10.352 96.8055 11.747H90.6055C91.1945 8.306 94.0155 6.291 100.432 6.291C108.12 6.291 108.089 9.143 107.407 13.018L106.074 20.613C105.888 21.543 105.857 22.008 106.57 22.69L106.508 23ZM96.8985 19.807C99.1615 19.807 100.215 18.04 100.463 15.808C98.1695 16.831 95.4725 16.335 95.1005 18.443C94.9455 19.249 95.6275 19.807 96.8985 19.807ZM108.926 23L111.778 6.756H117.699L117.265 9.174C118.319 7.934 120.613 6.291 122.938 6.291C125.852 6.291 127.247 7.531 127.712 9.267C129.448 7.314 131.463 6.291 133.85 6.291C138.593 6.291 139.616 8.957 138.841 13.39L137.136 23H130.688L132.145 14.723C132.579 12.336 132.269 11.375 130.564 11.375C128.673 11.375 128.022 13.018 127.681 14.971L126.255 23H119.807L121.264 14.723C121.698 12.336 121.388 11.375 119.683 11.375C117.792 11.375 117.141 13.018 116.8 14.971L115.374 23H108.926ZM158.185 23H151.52V21.264C149.381 22.969 147.428 23.465 145.01 23.465C141.941 23.465 139.492 21.946 140.081 18.567C141.383 11.189 152.357 14.537 152.884 11.499C153.101 10.321 151.706 10.166 151.024 10.166C150.125 10.166 148.885 10.352 148.482 11.747H142.282C142.871 8.306 145.692 6.291 152.109 6.291C159.797 6.291 159.766 9.143 159.084 13.018L157.751 20.613C157.565 21.543 157.534 22.008 158.247 22.69L158.185 23ZM148.575 19.807C150.838 19.807 151.892 18.04 152.14 15.808C149.846 16.831 147.149 16.335 146.777 18.443C146.622 19.249 147.304 19.807 148.575 19.807Z" fill="white"/>
</svg>
